<?xml version="1.0" standalone="no"?>
<!DOCTYPE svg PUBLIC "-//W3C//DTD SVG 20010904//EN"
 "http://www.w3.org/TR/2001/REC-SVG-20010904/DTD/svg10.dtd">
<svg version="1.0" xmlns="http://www.w3.org/2000/svg"
 width="400.000000pt" height="400.000000pt" viewBox="0 0 400.000000 400.000000"
 preserveAspectRatio="xMidYMid meet">

<g transform="translate(0.000000,400.000000) scale(0.100000,-0.100000)"
fill="#000000" stroke="none">
<path d="M2981 3679 c-27 -57 -90 -189 -141 -294 -51 -104 -100 -208 -110
-230 -10 -22 -35 -57 -57 -78 l-39 -37 -50 24 c-60 29 -116 74 -108 87 3 5 10
7 15 3 5 -3 6 -10 3 -16 -4 -6 -2 -8 4 -4 6 3 18 -1 27 -10 9 -9 18 -14 21
-12 6 7 -63 68 -77 68 -6 0 -8 -3 -6 -7 3 -5 -14 -7 -36 -6 -99 4 -179 5 -182
1 -8 -7 16 -78 25 -78 6 0 10 5 10 11 0 7 14 10 35 7 19 -2 35 0 35 5 0 5 7 6
15 3 8 -3 22 -9 32 -13 12 -5 14 -3 8 7 -5 9 -4 11 4 6 6 -4 9 -11 6 -16 -7
-11 26 -29 42 -23 6 2 19 -7 29 -21 9 -14 22 -26 29 -26 7 0 15 -3 18 -7 2 -5
2 -2 1 5 -4 16 11 15 28 -1 7 -8 19 -12 25 -10 7 3 34 -8 60 -24 40 -23 64
-29 138 -34 50 -3 -54 -6 -233 -7 l-323 -2 -26 -30 c-13 -16 -30 -30 -36 -30
-7 0 -4 7 7 15 17 13 17 15 1 59 -10 25 -20 46 -24 46 -3 0 -17 -17 -29 -36
-20 -31 -22 -41 -13 -61 12 -27 6 -47 -11 -37 -7 4 -8 2 -4 -5 4 -6 -3 -28
-15 -48 -20 -32 -23 -34 -30 -17 -3 10 -5 22 -3 25 2 3 -15 24 -36 47 -22 23
-40 46 -40 53 0 6 -7 8 -15 5 -10 -3 -15 -1 -13 7 1 6 -6 24 -16 39 -10 16
-16 34 -13 42 3 8 2 16 -3 18 -4 2 -6 15 -3 30 3 15 9 25 13 23 5 -3 12 0 16
6 4 7 3 9 -2 6 -6 -3 -16 -2 -23 2 -9 6 -3 14 22 30 51 31 112 28 170 -9 30
-19 47 -25 47 -16 0 7 -3 16 -7 19 -3 4 -7 26 -9 49 -1 29 0 37 6 23 4 -11 6
-23 4 -27 -3 -4 0 -9 6 -13 18 -11 11 34 -16 111 -21 58 -33 78 -59 94 -39 24
-85 26 -128 4 l-32 -17 24 27 c32 34 79 42 122 21 l34 -17 -21 22 c-12 12 -37
24 -57 27 -29 4 -41 -1 -65 -24 -38 -37 -59 -82 -56 -121 1 -18 -2 -32 -7 -32
-6 0 -6 -7 0 -18 5 -10 6 -24 2 -31 -5 -7 -7 -26 -5 -41 3 -23 0 -28 -12 -23
-11 4 -14 13 -8 32 7 25 12 121 6 121 -1 0 -23 -31 -47 -70 -25 -38 -51 -67
-58 -65 -6 2 -62 6 -122 9 l-110 4 -73 -70 c-81 -77 -71 -75 -130 -20 -7 6
-16 12 -19 12 -7 0 18 -31 41 -50 15 -14 16 -18 4 -28 -12 -9 -19 -2 -41 39
-15 27 -25 54 -22 59 3 4 -8 36 -24 70 -16 33 -31 56 -33 49 -2 -6 -32 48 -66
121 -34 72 -59 136 -56 142 5 7 2 8 -6 3 -9 -6 -10 -2 -5 15 5 17 4 21 -6 15
-9 -6 -11 -3 -6 9 4 9 3 15 -2 12 -4 -3 -32 44 -60 105 -29 61 -54 109 -57
107 -4 -4 25 -69 183 -423 105 -232 143 -321 143 -332 0 -11 -25 -17 -132 -29
-34 -4 -59 -12 -62 -20 -4 -11 -26 -14 -93 -13 l-88 2 79 8 c116 12 116 20 1
14 -55 -3 -125 -5 -155 -5 -39 0 -51 -3 -40 -10 10 -6 -47 -10 -171 -10 -359
0 -639 -12 -639 -27 0 -7 3 -13 8 -13 4 0 36 -5 72 -10 36 -6 224 -10 419 -10
298 0 357 -2 371 -15 14 -13 19 -12 45 1 18 9 49 14 80 12 49 -3 46 -4 -162
-83 -117 -44 -213 -83 -213 -87 0 -4 6 -5 12 -3 7 2 131 40 275 84 258 80 262
81 302 66 42 -14 141 -75 159 -98 6 -7 12 -33 14 -59 5 -61 18 -74 18 -19 l0
43 71 -63 71 -63 134 -22 c299 -51 369 -51 654 -3 158 26 148 22 215 83 l60
55 3 -34 c5 -50 20 -43 27 13 4 26 8 52 10 59 6 17 120 92 166 108 40 14 46
13 183 -29 178 -56 186 -58 186 -53 0 3 -57 24 -127 47 -71 23 -133 45 -140
48 -6 4 29 8 78 10 65 2 96 -1 110 -12 21 -14 59 -11 59 5 0 5 156 9 358 9
197 0 384 4 417 10 33 5 61 10 63 10 1 0 2 7 2 15 0 13 -26 15 -177 15 -98 0
-232 2 -298 4 -66 2 -231 5 -367 5 -198 1 -248 4 -248 14 0 9 -29 17 -92 26
-51 6 -94 14 -96 16 -4 4 5 32 23 78 4 9 3 17 -3 17 -6 0 -14 -9 -17 -21 -4
-11 -9 -18 -12 -16 -8 9 17 47 31 47 10 0 74 134 203 430 14 30 31 69 38 85
29 65 57 147 51 152 -3 3 -28 -41 -55 -98z m-1721 -494 c0 -5 -5 -3 -10 5 -5
8 -10 20 -10 25 0 6 5 3 10 -5 5 -8 10 -19 10 -25z m30 -59 c0 -12 -5 -7 -19
24 -11 24 -11 24 3 6 9 -11 16 -24 16 -30z m440 -28 c-1 -22 -29 -52 -52 -54
-13 -2 -17 0 -10 2 6 3 9 11 5 17 -5 8 -2 8 9 0 12 -11 17 -9 25 10 10 21 9
22 -36 20 -44 -1 -44 -1 -11 6 54 13 70 12 70 -1z m-110 -77 c-26 -15 -66 -24
-55 -13 6 5 19 12 30 15 32 8 41 7 25 -2z m-120 -46 c-23 -13 -16 -14 85 -17
67 -2 42 -4 -65 -4 -96 0 -154 1 -127 3 26 2 47 8 47 13 0 5 6 7 14 4 8 -3 23
-1 33 5 10 6 23 10 28 10 6 0 -1 -6 -15 -14z m-155 -5 c-3 -5 -14 -10 -23 -9
-14 0 -13 2 3 9 27 11 27 11 20 0z m-442 -17 c-13 -2 -35 -2 -50 0 -16 2 -5 4
22 4 28 0 40 -2 28 -4z m360 0 c-18 -2 -48 -2 -65 0 -18 2 -4 4 32 4 36 0 50
-2 33 -4z"/>
<path d="M2182 3135 c0 -16 2 -22 5 -12 2 9 2 23 0 30 -3 6 -5 -1 -5 -18z"/>
<path d="M2195 3096 c-5 -10 -3 -33 3 -50 7 -18 12 -44 12 -59 0 -20 5 -27 18
-27 14 0 19 8 19 33 0 17 -3 37 -8 42 -4 6 -4 16 0 24 6 8 12 2 22 -21 8 -18
13 -36 12 -40 -1 -3 4 -12 12 -18 26 -22 18 26 -12 71 -23 35 -28 38 -36 23
-9 -15 -11 -13 -22 12 -11 26 -13 27 -20 10z"/>
<path d="M1972 3078 c-52 -14 -37 -23 37 -23 51 0 67 3 60 11 -13 16 -59 22
-97 12z"/>
<path d="M2289 3063 c6 -12 23 -31 37 -42 16 -12 21 -21 13 -21 -8 -1 3 -10
24 -21 29 -15 53 -19 104 -17 l65 3 -98 34 c-55 19 -112 46 -128 60 -26 23
-27 24 -17 4z"/>
<path d="M2586 2999 c4 -8 -1 -9 -17 -4 -18 5 -21 4 -9 -4 8 -6 23 -8 34 -5
12 4 16 2 12 -5 -4 -6 -3 -11 2 -11 19 0 21 14 4 26 -21 16 -36 18 -26 3z"/>
<path d="M2921 2976 c2 -2 40 -6 84 -9 59 -4 69 -3 40 3 -40 9 -132 13 -124 6z"/>
<path d="M3148 2963 c18 -2 45 -2 60 0 15 2 0 4 -33 4 -33 0 -45 -2 -27 -4z"/>
<path d="M2060 2870 c-8 -5 -12 -12 -9 -15 4 -3 12 1 19 10 14 17 11 19 -10 5z"/>
<path d="M2980 2870 c8 -5 20 -10 25 -10 6 0 3 5 -5 10 -8 5 -19 10 -25 10 -5
0 -3 -5 5 -10z"/>
<path d="M1290 2306 c0 -8 72 -131 85 -146 7 -8 25 -42 40 -75 15 -33 32 -66
38 -73 6 -8 13 -23 14 -35 2 -12 7 -24 11 -27 15 -11 31 -49 23 -54 -4 -3
-100 -19 -212 -36 -376 -56 -473 -71 -564 -85 -49 -7 -130 -19 -180 -26 -49
-7 -83 -15 -75 -18 8 -3 -37 -13 -100 -23 l-115 -17 85 4 c93 4 793 62 852 70
35 5 38 4 34 -17 -3 -13 -5 -26 -5 -30 -1 -5 -12 -8 -24 -8 -18 0 -30 -12 -51
-50 -15 -27 -31 -52 -36 -55 -6 -4 -10 -14 -10 -24 0 -14 -17 -25 -66 -42 -84
-30 -69 -36 25 -10 67 19 72 19 78 3 4 -9 15 -32 26 -49 14 -25 23 -31 35 -24
10 5 26 5 37 1 11 -4 27 -4 36 1 8 4 21 4 29 -1 23 -14 41 7 28 34 -7 18 -6
30 6 52 8 16 15 23 16 15 0 -7 6 -11 15 -7 24 9 17 -4 -7 -14 -20 -9 -19 -9 8
-5 16 3 57 -1 89 -10 70 -18 88 -19 59 -2 l-22 12 34 75 c27 62 36 74 53 72
12 -2 37 9 56 24 29 22 38 24 50 14 12 -10 15 -10 15 1 0 19 46 -71 75 -146
13 -33 46 -108 75 -167 l51 -108 110 0 109 0 11 28 c5 15 28 63 50 106 22 44
51 108 64 142 13 34 36 80 50 103 32 47 58 52 99 20 14 -11 36 -19 48 -17 19
3 26 -7 50 -72 27 -70 28 -75 12 -87 -23 -17 -8 -16 52 2 72 22 86 19 112 -20
12 -19 22 -38 22 -43 0 -9 87 -9 96 1 4 3 15 2 26 -4 23 -12 40 -3 36 19 -1
10 2 23 7 31 5 10 4 16 -3 19 -6 2 -8 10 -5 18 5 13 7 13 14 2 7 -10 9 -10 9
3 0 9 7 16 15 16 8 0 15 -5 15 -11 0 -12 137 -52 146 -43 3 3 -24 15 -60 27
-39 13 -66 27 -66 36 0 8 -6 11 -15 8 -10 -4 -29 8 -52 32 -33 36 -38 30 -6
-7 13 -15 10 -17 -22 -21 -46 -5 -51 4 -28 45 14 24 26 32 45 31 24 -1 25 1
16 22 -7 15 -20 24 -34 24 -24 0 -43 35 -27 50 4 4 157 -5 338 -21 501 -44
596 -51 601 -46 3 2 -46 10 -108 16 -62 7 -156 19 -208 26 -52 7 -131 16 -175
20 -44 4 -105 11 -135 16 -30 5 -98 13 -150 19 -52 6 -171 20 -265 31 -150 17
-184 18 -299 8 l-129 -12 -59 -63 c-33 -34 -76 -74 -97 -88 -40 -28 -96 -48
-106 -38 -3 3 -15 7 -26 9 -47 7 -85 63 -43 63 9 0 13 4 9 9 -9 15 9 21 87 26
76 5 73 4 131 74 10 12 21 20 25 17 16 -9 13 126 -4 177 -22 68 -77 159 -115
191 -56 47 -80 38 -184 -69 -123 -125 -273 -220 -319 -202 -14 6 -47 53 -159
229 -21 32 -37 60 -37 64 0 12 -61 94 -70 94 -6 0 -10 -2 -10 -4z m518 -394
c-1 -15 4 -37 10 -47 8 -16 5 -26 -12 -48 -20 -25 -24 -26 -36 -13 -7 9 -19
16 -26 16 -8 0 -14 3 -14 6 0 8 53 78 63 82 4 2 7 10 7 18 0 8 2 14 4 14 3 0
4 -13 4 -28z m226 -88 c25 -10 19 -34 -8 -34 -19 0 -24 5 -23 20 1 21 6 24 31
14z m-534 -45 c0 -6 7 -17 15 -25 8 -9 15 -25 15 -37 0 -29 -37 -158 -49 -170
-11 -11 -82 13 -79 28 2 5 -15 38 -36 73 -30 48 -44 62 -62 62 -20 0 -24 5
-24 30 0 25 4 30 33 34 96 16 187 19 187 5z m1218 -5 c16 -5 22 -14 22 -35 0
-24 -4 -29 -24 -29 -18 0 -32 -14 -60 -59 -20 -32 -36 -65 -36 -73 0 -17 -69
-44 -79 -32 -13 15 -51 139 -51 166 0 14 7 31 15 38 8 7 15 19 15 28 0 13 13
14 88 9 48 -4 97 -10 110 -13z m-800 -44 c7 0 12 -5 12 -11 0 -6 -6 -9 -14 -6
-7 3 -19 0 -25 -6 -8 -8 -18 -4 -39 17 -15 16 -22 26 -16 22 7 -3 14 4 18 17
6 22 6 22 29 -5 13 -16 28 -28 35 -28z m-17 -43 c-10 -9 -11 -8 -5 6 3 10 9
15 12 12 3 -3 0 -11 -7 -18z m889 -7 c8 -5 11 -10 5 -10 -5 0 -17 5 -25 10 -8
5 -10 10 -5 10 6 0 17 -5 25 -10z m60 0 c0 -5 -2 -10 -4 -10 -3 0 -8 5 -11 10
-3 6 -1 10 4 10 6 0 11 -4 11 -10z m-74 -33 c17 6 17 5 5 -10 -10 -13 -17 -15
-27 -6 -8 6 -14 17 -14 23 0 7 3 6 8 -2 5 -8 16 -10 28 -5z m-877 -235 c0 -24
-1 -25 -9 -7 -12 28 -12 47 0 40 6 -3 10 -18 9 -33z"/>
<path d="M1855 1740 c-3 -5 -2 -10 4 -10 5 0 13 5 16 10 3 6 2 10 -4 10 -5 0
-13 -4 -16 -10z"/>
<path d="M2653 2223 c-156 -243 -186 -289 -196 -295 -15 -9 -6 -17 29 -24 27
-5 32 -2 47 33 10 21 16 41 15 44 -2 4 4 15 13 25 9 11 28 46 43 79 15 33 36
69 46 80 11 11 28 41 40 67 11 26 25 50 30 53 13 8 13 25 0 25 -6 0 -36 -39
-67 -87z"/>
<path d="M2283 1922 c1 -14 5 -18 11 -12 7 7 6 14 -1 21 -9 9 -12 7 -10 -9z"/>
<path d="M1955 1680 c3 -5 1 -10 -5 -10 -6 0 -8 -5 -4 -11 4 -8 9 -7 15 2 12
19 11 29 -2 29 -5 0 -7 -4 -4 -10z"/>
<path d="M796 1047 c109 -106 229 -221 267 -256 37 -35 65 -66 63 -68 -2 -2
-52 5 -110 16 -104 20 -175 27 -164 15 4 -3 75 -23 159 -45 84 -22 154 -41
156 -43 9 -8 -169 -16 -582 -26 -242 -6 -473 -13 -512 -16 -68 -5 -73 -7 -73
-29 0 -23 2 -23 110 -27 121 -3 128 -7 124 -61 -3 -31 -2 -32 36 -32 36 0 38
2 38 30 0 58 -5 56 95 53 l92 -3 0 -40 c0 -40 0 -41 34 -38 42 3 42 4 44 45
l2 33 65 0 64 0 2 -33 c2 -40 2 -41 45 -46 l34 -4 -3 39 -4 39 78 0 79 0 -1
-28 c0 -16 -3 -33 -7 -38 -3 -6 15 -10 48 -10 33 0 51 4 48 10 -12 18 -8 66 5
71 25 9 140 5 144 -5 4 -12 108 -39 151 -40 16 0 27 -6 27 -14 0 -7 57 -72
126 -145 l126 -131 88 0 c88 0 89 0 117 34 32 39 71 55 84 35 4 -7 4 -18 -1
-24 -5 -7 10 -10 45 -10 31 0 50 4 45 9 -16 16 2 36 32 36 26 0 30 -3 26 -22
-4 -22 -1 -23 48 -23 35 0 49 3 44 10 -5 6 -5 16 -1 23 13 21 58 3 86 -34 l26
-34 88 0 88 0 117 120 c64 66 121 132 126 145 7 18 17 25 37 25 40 1 144 27
156 39 11 11 97 15 132 5 14 -3 20 -13 19 -33 0 -15 -3 -32 -7 -37 -3 -6 15
-10 48 -10 33 0 51 4 48 10 -4 5 -7 22 -7 38 l-1 28 77 0 78 0 -3 -38 -3 -37
41 0 c40 0 41 1 40 32 -3 48 6 54 71 51 l59 -3 0 -40 0 -40 40 0 40 0 0 40 0
40 103 2 c78 1 101 -2 93 -11 -5 -6 -9 -25 -9 -42 1 -24 5 -29 22 -29 12 1 27
4 33 8 6 4 14 1 16 -5 3 -7 4 4 3 24 -4 59 3 63 114 66 98 4 100 4 100 28 0
24 -1 24 -102 25 -57 0 -112 2 -123 4 -11 1 -185 6 -386 9 -310 5 -524 17
-537 30 -1 2 29 12 69 22 125 32 57 26 -102 -10 -128 -29 -156 -32 -168 -21
-10 10 -50 12 -180 8 -183 -6 -222 -17 -276 -73 -16 -17 -34 -30 -39 -29 -6 0
-23 15 -37 32 l-26 32 19 55 c31 89 48 153 48 182 0 44 -58 133 -103 159 -36
20 -44 21 -76 9 -43 -15 -105 -72 -121 -110 -8 -20 -32 -37 -89 -64 -42 -20
-82 -36 -88 -36 -6 0 -39 -16 -73 -35 -34 -19 -99 -53 -144 -75 -79 -40 -83
-41 -131 -30 -28 6 -67 22 -87 36 -21 13 -170 137 -332 274 -162 138 -300 250
-307 250 -7 0 77 -87 187 -193z m938 -331 c-3 -8 -13 -17 -22 -21 -13 -5 -13
-2 3 15 21 24 26 25 19 6z m-4 -39 c0 -8 -15 -14 -42 -16 -48 -2 -46 7 4 19
18 4 34 8 36 9 1 1 2 -5 2 -12z m1078 -34 c-10 -2 -26 -2 -35 0 -10 3 -2 5 17
5 19 0 27 -2 18 -5z m492 -128 c0 -8 -2 -15 -4 -15 -2 0 -6 7 -10 15 -3 8 -1
15 4 15 6 0 10 -7 10 -15z m467 -7 c-3 -8 -6 -5 -6 6 -1 11 2 17 5 13 3 -3 4
-12 1 -19z"/>
<path d="M3365 1205 c-22 -18 -101 -85 -175 -147 -74 -62 -175 -147 -224 -188
-48 -41 -118 -99 -154 -129 -37 -30 -58 -51 -47 -47 11 5 41 11 66 15 52 7 38
-6 398 343 107 103 190 188 185 188 -5 -1 -27 -16 -49 -35z"/>
<path d="M2301 808 c26 -26 47 -36 84 -41 26 -4 50 -5 53 -3 5 5 -72 45 -108
56 -14 4 -34 11 -45 15 -14 5 -9 -4 16 -27z"/>
<path d="M2220 806 c0 -2 8 -10 18 -17 15 -13 16 -12 3 4 -13 16 -21 21 -21
13z"/>
<path d="M2175 770 c-8 -13 3 -30 18 -30 8 0 7 3 -2 9 -7 5 -10 14 -7 20 4 6
5 11 2 11 -3 0 -8 -4 -11 -10z"/>
<path d="M3008 713 c7 -3 16 -2 19 1 4 3 -2 6 -13 5 -11 0 -14 -3 -6 -6z"/>
</g>
</svg>
